<mxfile host="app.diagrams.net" modified="2023-12-17T21:45:39.999Z" agent="Mozilla/5.0 (X11; Linux x86_64; rv:109.0) Gecko/20100101 Firefox/115.0" etag="IiPR8RGFd1DkCEVpkCxS" version="22.1.11" type="github">
  <diagram id="C5RBs43oDa-KdzZeNtuy" name="Page-1">
    <mxGraphModel dx="2251" dy="755" grid="1" gridSize="10" guides="1" tooltips="1" connect="1" arrows="1" fold="1" page="1" pageScale="1" pageWidth="827" pageHeight="1169" math="0" shadow="0">
      <root>
        <mxCell id="WIyWlLk6GJQsqaUBKTNV-0" />
        <mxCell id="WIyWlLk6GJQsqaUBKTNV-1" parent="WIyWlLk6GJQsqaUBKTNV-0" />
        <mxCell id="YXk10PL0izrGJNG5iwNp-13" value="end of day BOH" style="edgeStyle=orthogonalEdgeStyle;rounded=0;orthogonalLoop=1;jettySize=auto;html=1;" edge="1" parent="WIyWlLk6GJQsqaUBKTNV-1">
          <mxGeometry relative="1" as="geometry">
            <mxPoint x="274" y="95" as="sourcePoint" />
            <mxPoint x="554" y="70" as="targetPoint" />
            <Array as="points">
              <mxPoint x="274" y="50" />
              <mxPoint x="384" y="50" />
              <mxPoint x="384" y="40" />
              <mxPoint x="554" y="40" />
            </Array>
          </mxGeometry>
        </mxCell>
        <mxCell id="YXk10PL0izrGJNG5iwNp-1" value="SIM" style="rounded=1;whiteSpace=wrap;html=1;labelBackgroundColor=#FF6666;fontColor=#FFFFFF;" vertex="1" parent="WIyWlLk6GJQsqaUBKTNV-1">
          <mxGeometry x="160" y="70" width="120" height="50" as="geometry" />
        </mxCell>
        <mxCell id="YXk10PL0izrGJNG5iwNp-6" value="order Guides" style="shape=link;html=1;rounded=0;" edge="1" parent="WIyWlLk6GJQsqaUBKTNV-1">
          <mxGeometry width="100" relative="1" as="geometry">
            <mxPoint x="270" y="80" as="sourcePoint" />
            <mxPoint x="370" y="80" as="targetPoint" />
          </mxGeometry>
        </mxCell>
        <mxCell id="YXk10PL0izrGJNG5iwNp-7" value="Point &amp;amp; shoot" style="shape=link;html=1;rounded=0;" edge="1" parent="WIyWlLk6GJQsqaUBKTNV-1">
          <mxGeometry x="-0.2" width="100" relative="1" as="geometry">
            <mxPoint x="270" y="100" as="sourcePoint" />
            <mxPoint x="370" y="100" as="targetPoint" />
            <Array as="points">
              <mxPoint x="330" y="100" />
            </Array>
            <mxPoint as="offset" />
          </mxGeometry>
        </mxCell>
        <mxCell id="YXk10PL0izrGJNG5iwNp-21" value="Orders" style="edgeStyle=orthogonalEdgeStyle;rounded=0;orthogonalLoop=1;jettySize=auto;html=1;entryX=0;entryY=0.5;entryDx=0;entryDy=0;" edge="1" parent="WIyWlLk6GJQsqaUBKTNV-1" source="YXk10PL0izrGJNG5iwNp-8" target="YXk10PL0izrGJNG5iwNp-17">
          <mxGeometry relative="1" as="geometry" />
        </mxCell>
        <mxCell id="YXk10PL0izrGJNG5iwNp-34" value="&lt;div&gt;expected &lt;br&gt;&lt;/div&gt;&lt;div&gt;shipments&lt;/div&gt;&lt;div&gt;from&lt;/div&gt;&lt;div&gt;SIM&lt;br&gt;&lt;/div&gt;" style="edgeStyle=orthogonalEdgeStyle;rounded=0;orthogonalLoop=1;jettySize=auto;html=1;" edge="1" parent="WIyWlLk6GJQsqaUBKTNV-1" source="YXk10PL0izrGJNG5iwNp-8" target="YXk10PL0izrGJNG5iwNp-33">
          <mxGeometry relative="1" as="geometry">
            <Array as="points">
              <mxPoint x="50" y="310" />
              <mxPoint x="50" y="500" />
            </Array>
          </mxGeometry>
        </mxCell>
        <mxCell id="YXk10PL0izrGJNG5iwNp-36" value="journal files(invoices)" style="edgeStyle=orthogonalEdgeStyle;rounded=0;orthogonalLoop=1;jettySize=auto;html=1;entryX=1;entryY=0;entryDx=0;entryDy=0;" edge="1" parent="WIyWlLk6GJQsqaUBKTNV-1" source="YXk10PL0izrGJNG5iwNp-8" target="YXk10PL0izrGJNG5iwNp-35">
          <mxGeometry relative="1" as="geometry">
            <Array as="points">
              <mxPoint x="-200" y="280" />
            </Array>
          </mxGeometry>
        </mxCell>
        <mxCell id="YXk10PL0izrGJNG5iwNp-8" value="A-SERIES" style="rounded=1;whiteSpace=wrap;html=1;" vertex="1" parent="WIyWlLk6GJQsqaUBKTNV-1">
          <mxGeometry x="140" y="280" width="120" height="60" as="geometry" />
        </mxCell>
        <mxCell id="YXk10PL0izrGJNG5iwNp-45" style="edgeStyle=orthogonalEdgeStyle;rounded=0;orthogonalLoop=1;jettySize=auto;html=1;entryX=1;entryY=0.25;entryDx=0;entryDy=0;" edge="1" parent="WIyWlLk6GJQsqaUBKTNV-1" source="YXk10PL0izrGJNG5iwNp-9" target="YXk10PL0izrGJNG5iwNp-8">
          <mxGeometry relative="1" as="geometry">
            <Array as="points">
              <mxPoint x="560" y="250" />
              <mxPoint x="380" y="250" />
              <mxPoint x="380" y="295" />
            </Array>
          </mxGeometry>
        </mxCell>
        <mxCell id="YXk10PL0izrGJNG5iwNp-46" value="CGO order file" style="edgeStyle=orthogonalEdgeStyle;rounded=0;orthogonalLoop=1;jettySize=auto;html=1;" edge="1" parent="WIyWlLk6GJQsqaUBKTNV-1" source="YXk10PL0izrGJNG5iwNp-9">
          <mxGeometry relative="1" as="geometry">
            <mxPoint x="500" y="130" as="sourcePoint" />
            <mxPoint x="200" y="290" as="targetPoint" />
            <Array as="points">
              <mxPoint x="530" y="160" />
              <mxPoint x="201" y="160" />
            </Array>
          </mxGeometry>
        </mxCell>
        <mxCell id="YXk10PL0izrGJNG5iwNp-9" value="BLUE YONDER" style="rounded=1;whiteSpace=wrap;html=1;" vertex="1" parent="WIyWlLk6GJQsqaUBKTNV-1">
          <mxGeometry x="500" y="70" width="120" height="55" as="geometry" />
        </mxCell>
        <mxCell id="YXk10PL0izrGJNG5iwNp-11" value="PMM" style="shape=link;html=1;rounded=0;" edge="1" parent="WIyWlLk6GJQsqaUBKTNV-1">
          <mxGeometry width="100" relative="1" as="geometry">
            <mxPoint x="610" y="80" as="sourcePoint" />
            <mxPoint x="710" y="80" as="targetPoint" />
          </mxGeometry>
        </mxCell>
        <mxCell id="YXk10PL0izrGJNG5iwNp-12" value="CGO order gen" style="shape=link;html=1;rounded=0;" edge="1" parent="WIyWlLk6GJQsqaUBKTNV-1">
          <mxGeometry width="100" relative="1" as="geometry">
            <mxPoint x="610" y="100" as="sourcePoint" />
            <mxPoint x="710" y="100" as="targetPoint" />
          </mxGeometry>
        </mxCell>
        <mxCell id="YXk10PL0izrGJNG5iwNp-14" value="Ambient" style="shape=link;html=1;rounded=0;" edge="1" parent="WIyWlLk6GJQsqaUBKTNV-1">
          <mxGeometry width="100" relative="1" as="geometry">
            <mxPoint x="610" y="120" as="sourcePoint" />
            <mxPoint x="710" y="120" as="targetPoint" />
          </mxGeometry>
        </mxCell>
        <mxCell id="YXk10PL0izrGJNG5iwNp-15" value="BOL" style="edgeStyle=orthogonalEdgeStyle;rounded=0;orthogonalLoop=1;jettySize=auto;html=1;entryX=0.942;entryY=1.06;entryDx=0;entryDy=0;entryPerimeter=0;" edge="1" parent="WIyWlLk6GJQsqaUBKTNV-1" source="YXk10PL0izrGJNG5iwNp-8" target="YXk10PL0izrGJNG5iwNp-1">
          <mxGeometry relative="1" as="geometry">
            <Array as="points">
              <mxPoint x="270" y="310" />
              <mxPoint x="270" y="200" />
              <mxPoint x="273" y="200" />
            </Array>
          </mxGeometry>
        </mxCell>
        <mxCell id="YXk10PL0izrGJNG5iwNp-16" value="Orders" style="edgeStyle=orthogonalEdgeStyle;rounded=0;orthogonalLoop=1;jettySize=auto;html=1;entryX=0.917;entryY=0.033;entryDx=0;entryDy=0;entryPerimeter=0;" edge="1" parent="WIyWlLk6GJQsqaUBKTNV-1" source="YXk10PL0izrGJNG5iwNp-1" target="YXk10PL0izrGJNG5iwNp-8">
          <mxGeometry relative="1" as="geometry">
            <Array as="points">
              <mxPoint x="240" y="282" />
            </Array>
          </mxGeometry>
        </mxCell>
        <mxCell id="YXk10PL0izrGJNG5iwNp-22" value="BOL/shorts" style="edgeStyle=orthogonalEdgeStyle;rounded=0;orthogonalLoop=1;jettySize=auto;html=1;entryX=1;entryY=0.75;entryDx=0;entryDy=0;" edge="1" parent="WIyWlLk6GJQsqaUBKTNV-1" source="YXk10PL0izrGJNG5iwNp-17" target="YXk10PL0izrGJNG5iwNp-8">
          <mxGeometry relative="1" as="geometry">
            <Array as="points">
              <mxPoint x="450" y="325" />
              <mxPoint x="450" y="325" />
            </Array>
          </mxGeometry>
        </mxCell>
        <mxCell id="YXk10PL0izrGJNG5iwNp-26" value="LP" style="edgeStyle=orthogonalEdgeStyle;rounded=0;orthogonalLoop=1;jettySize=auto;html=1;" edge="1" parent="WIyWlLk6GJQsqaUBKTNV-1" source="YXk10PL0izrGJNG5iwNp-17" target="YXk10PL0izrGJNG5iwNp-25">
          <mxGeometry relative="1" as="geometry" />
        </mxCell>
        <mxCell id="YXk10PL0izrGJNG5iwNp-17" value="TRICEPS" style="rounded=1;whiteSpace=wrap;html=1;" vertex="1" parent="WIyWlLk6GJQsqaUBKTNV-1">
          <mxGeometry x="510" y="280" width="120" height="60" as="geometry" />
        </mxCell>
        <mxCell id="YXk10PL0izrGJNG5iwNp-18" value="MCOM(layer of A-series) " style="shape=step;perimeter=stepPerimeter;whiteSpace=wrap;html=1;fixedSize=1;" vertex="1" parent="WIyWlLk6GJQsqaUBKTNV-1">
          <mxGeometry x="260" y="340" width="120" height="30" as="geometry" />
        </mxCell>
        <mxCell id="YXk10PL0izrGJNG5iwNp-24" value="invoices into pallets" style="shape=link;html=1;rounded=0;" edge="1" parent="WIyWlLk6GJQsqaUBKTNV-1">
          <mxGeometry width="100" relative="1" as="geometry">
            <mxPoint x="620" y="290" as="sourcePoint" />
            <mxPoint x="720" y="290" as="targetPoint" />
          </mxGeometry>
        </mxCell>
        <mxCell id="YXk10PL0izrGJNG5iwNp-29" value="&lt;div&gt;carrier&lt;/div&gt;&lt;div&gt;move&lt;br&gt;&lt;/div&gt;" style="edgeStyle=orthogonalEdgeStyle;rounded=0;orthogonalLoop=1;jettySize=auto;html=1;entryX=0.25;entryY=1;entryDx=0;entryDy=0;" edge="1" parent="WIyWlLk6GJQsqaUBKTNV-1" source="YXk10PL0izrGJNG5iwNp-25" target="YXk10PL0izrGJNG5iwNp-17">
          <mxGeometry relative="1" as="geometry">
            <Array as="points">
              <mxPoint x="540" y="440" />
              <mxPoint x="540" y="440" />
            </Array>
          </mxGeometry>
        </mxCell>
        <mxCell id="YXk10PL0izrGJNG5iwNp-25" value="TMS" style="rounded=1;whiteSpace=wrap;html=1;" vertex="1" parent="WIyWlLk6GJQsqaUBKTNV-1">
          <mxGeometry x="510" y="470" width="120" height="60" as="geometry" />
        </mxCell>
        <mxCell id="YXk10PL0izrGJNG5iwNp-27" value="LP to TMS" style="shape=link;html=1;rounded=0;" edge="1" parent="WIyWlLk6GJQsqaUBKTNV-1">
          <mxGeometry width="100" relative="1" as="geometry">
            <mxPoint x="620" y="310" as="sourcePoint" />
            <mxPoint x="720" y="310" as="targetPoint" />
          </mxGeometry>
        </mxCell>
        <mxCell id="YXk10PL0izrGJNG5iwNp-28" value="Load planning" style="shape=link;html=1;rounded=0;" edge="1" parent="WIyWlLk6GJQsqaUBKTNV-1">
          <mxGeometry width="100" relative="1" as="geometry">
            <mxPoint x="630" y="480" as="sourcePoint" />
            <mxPoint x="730" y="480" as="targetPoint" />
          </mxGeometry>
        </mxCell>
        <mxCell id="YXk10PL0izrGJNG5iwNp-30" value="DSD SUPPLIER" style="rounded=1;whiteSpace=wrap;html=1;" vertex="1" parent="WIyWlLk6GJQsqaUBKTNV-1">
          <mxGeometry x="150" y="500" width="120" height="60" as="geometry" />
        </mxCell>
        <mxCell id="YXk10PL0izrGJNG5iwNp-31" value="&lt;div&gt;DSD&lt;/div&gt;&lt;div&gt;PO&lt;br&gt;&lt;/div&gt;" style="edgeStyle=orthogonalEdgeStyle;rounded=0;orthogonalLoop=1;jettySize=auto;html=1;entryX=0.425;entryY=0.05;entryDx=0;entryDy=0;entryPerimeter=0;" edge="1" parent="WIyWlLk6GJQsqaUBKTNV-1" source="YXk10PL0izrGJNG5iwNp-8" target="YXk10PL0izrGJNG5iwNp-30">
          <mxGeometry relative="1" as="geometry" />
        </mxCell>
        <mxCell id="YXk10PL0izrGJNG5iwNp-32" value="build PO" style="shape=link;html=1;rounded=0;" edge="1" parent="WIyWlLk6GJQsqaUBKTNV-1">
          <mxGeometry width="100" relative="1" as="geometry">
            <mxPoint x="40" y="290" as="sourcePoint" />
            <mxPoint x="140" y="290" as="targetPoint" />
          </mxGeometry>
        </mxCell>
        <mxCell id="YXk10PL0izrGJNG5iwNp-33" value="&lt;div&gt;REPORT&lt;/div&gt;&lt;div&gt;SAFE&lt;br&gt;&lt;/div&gt;" style="rounded=1;whiteSpace=wrap;html=1;" vertex="1" parent="WIyWlLk6GJQsqaUBKTNV-1">
          <mxGeometry x="-130" y="490" width="120" height="60" as="geometry" />
        </mxCell>
        <mxCell id="YXk10PL0izrGJNG5iwNp-35" value="PSFT" style="rounded=1;whiteSpace=wrap;html=1;" vertex="1" parent="WIyWlLk6GJQsqaUBKTNV-1">
          <mxGeometry x="-320" y="360" width="120" height="60" as="geometry" />
        </mxCell>
        <mxCell id="YXk10PL0izrGJNG5iwNp-37" value="invoices by dpt" style="shape=link;html=1;rounded=0;" edge="1" parent="WIyWlLk6GJQsqaUBKTNV-1">
          <mxGeometry width="100" relative="1" as="geometry">
            <mxPoint x="-420" y="370" as="sourcePoint" />
            <mxPoint x="-320" y="370" as="targetPoint" />
          </mxGeometry>
        </mxCell>
        <mxCell id="YXk10PL0izrGJNG5iwNp-39" value="AMP" style="rounded=1;whiteSpace=wrap;html=1;" vertex="1" parent="WIyWlLk6GJQsqaUBKTNV-1">
          <mxGeometry x="890" y="70" width="120" height="60" as="geometry" />
        </mxCell>
        <mxCell id="YXk10PL0izrGJNG5iwNp-40" value="Promotions" style="edgeStyle=orthogonalEdgeStyle;rounded=0;orthogonalLoop=1;jettySize=auto;html=1;entryX=0.867;entryY=0;entryDx=0;entryDy=0;entryPerimeter=0;" edge="1" parent="WIyWlLk6GJQsqaUBKTNV-1" source="YXk10PL0izrGJNG5iwNp-39" target="YXk10PL0izrGJNG5iwNp-9">
          <mxGeometry relative="1" as="geometry">
            <Array as="points">
              <mxPoint x="950" y="50" />
              <mxPoint x="604" y="50" />
            </Array>
          </mxGeometry>
        </mxCell>
        <mxCell id="YXk10PL0izrGJNG5iwNp-42" value="sales" style="edgeStyle=orthogonalEdgeStyle;rounded=0;orthogonalLoop=1;jettySize=auto;html=1;entryX=0.75;entryY=1;entryDx=0;entryDy=0;exitX=0.083;exitY=0.167;exitDx=0;exitDy=0;exitPerimeter=0;" edge="1" parent="WIyWlLk6GJQsqaUBKTNV-1" source="YXk10PL0izrGJNG5iwNp-41" target="YXk10PL0izrGJNG5iwNp-9">
          <mxGeometry relative="1" as="geometry">
            <Array as="points">
              <mxPoint x="930" y="240" />
              <mxPoint x="590" y="240" />
            </Array>
          </mxGeometry>
        </mxCell>
        <mxCell id="YXk10PL0izrGJNG5iwNp-41" value="DW" style="rounded=1;whiteSpace=wrap;html=1;" vertex="1" parent="WIyWlLk6GJQsqaUBKTNV-1">
          <mxGeometry x="920" y="280" width="120" height="60" as="geometry" />
        </mxCell>
        <mxCell id="YXk10PL0izrGJNG5iwNp-47" value="MFC" style="rounded=1;whiteSpace=wrap;html=1;" vertex="1" parent="WIyWlLk6GJQsqaUBKTNV-1">
          <mxGeometry x="354" y="670" width="120" height="60" as="geometry" />
        </mxCell>
      </root>
    </mxGraphModel>
  </diagram>
</mxfile>
